<svg width="20" height="20" viewBox="0 0 20 20" fill="none" xmlns="http://www.w3.org/2000/svg">
<g clip-path="url(#clip0_153_748)">
<path d="M12.5 2.5V17.5C12.5 18.8833 11.3833 20 10 20C8.61667 20 7.5 18.8833 7.5 17.5V2.5C7.5 1.11667 8.61667 0 10 0C11.3833 0 12.5 1.11667 12.5 2.5ZM17.5 5C16.1167 5 15 6.11667 15 7.5V17.5C15 18.8833 16.1167 20 17.5 20C18.8833 20 20 18.8833 20 17.5V7.5C20 6.11667 18.8833 5 17.5 5ZM2.5 10C1.11667 10 0 11.1167 0 12.5V17.5C0 18.8833 1.11667 20 2.5 20C3.88333 20 5 18.8833 5 17.5V12.5C5 11.1167 3.88333 10 2.5 10Z" fill="#374151"/>
</g>
<defs>
<clipPath id="clip0_153_748">
<rect width="20" height="20" fill="white"/>
</clipPath>
</defs>
</svg>
