<svg width="20" height="20" viewBox="0 0 20 20" fill="none" xmlns="http://www.w3.org/2000/svg">
<g clip-path="url(#clip0_233_272)">
<path d="M15.5941 10.0003H11.6666C10.7461 10.0003 9.99991 9.25413 9.99991 8.33366V4.39534C10.0022 3.61838 9.64311 2.88448 9.02823 2.40952C8.44557 1.94811 7.68159 1.78366 6.96073 1.96452C2.06112 3.18077 -0.924858 8.1387 0.291431 13.0383C1.14834 16.4904 3.92991 19.1319 7.42159 19.8095C12.1915 20.7225 16.8457 17.7569 18.0333 13.0478C18.2148 12.326 18.0506 11.5609 17.5891 10.977C17.1087 10.3632 16.3735 10.0033 15.5941 10.0003Z" fill="#374151"/>
<path d="M19.709 6.205C19.5188 5.49789 19.2355 4.81918 18.8665 4.18668C17.7568 2.28285 15.9439 0.890781 13.8182 0.31C13.6782 0.272227 13.3648 0.25 13.3648 0.25C13.2529 0.250039 12.7707 0.25 12.389 0.55918C11.828 1.00062 11.7398 1.5025 11.7315 1.54168C11.7024 1.66457 11.6873 1.79039 11.6865 1.91668V5.83336C11.6865 7.21406 12.8058 8.33336 14.1865 8.33336H18.119C18.6407 8.33484 19.1318 8.08715 19.4407 7.66668C19.6691 7.35867 19.7866 6.98242 19.774 6.59918C19.7674 6.46574 19.7456 6.33348 19.709 6.205Z" fill="#374151"/>
</g>
<defs>
<clipPath id="clip0_233_272">
<rect width="20" height="20" fill="white"/>
</clipPath>
</defs>
</svg>
