<svg width="20" height="20" viewBox="0 0 20 20" fill="none" xmlns="http://www.w3.org/2000/svg">
<path d="M4.88001 2.22131C6.22253 1.61108 8.03331 1.25 10 1.25C11.9667 1.25 13.7775 1.61108 15.12 2.22131C16.4061 2.8059 17.5 3.74126 17.5 5C17.5 6.25874 16.4061 7.1941 15.12 7.77869C13.7775 8.38892 11.9667 8.75 10 8.75C8.03331 8.75 6.22253 8.38892 4.88001 7.77869C3.59392 7.1941 2.5 6.25874 2.5 5C2.5 3.74126 3.59392 2.8059 4.88001 2.22131Z" fill="white"/>
<path d="M2.5 7.70126V8.75001C2.5 10.0087 3.59392 10.9441 4.88001 11.5287C6.22253 12.1389 8.03331 12.5 10 12.5C11.9667 12.5 13.7775 12.1389 15.12 11.5287C16.4061 10.9441 17.5 10.0087 17.5 8.75001V7.70126C16.9284 8.24096 16.2447 8.64053 15.6372 8.91665C14.0979 9.61634 12.1031 10 10 10C7.8969 10 5.90207 9.61634 4.36276 8.91665C3.75529 8.64053 3.07158 8.24096 2.5 7.70126Z" fill="white"/>
<path d="M2.5 11.4513V12.5C2.5 13.7587 3.59392 14.6941 4.88001 15.2787C6.22253 15.8889 8.03331 16.25 10 16.25C11.9667 16.25 13.7775 15.8889 15.12 15.2787C16.4061 14.6941 17.5 13.7587 17.5 12.5V11.4513C16.9284 11.991 16.2447 12.3905 15.6372 12.6667C14.0979 13.3663 12.1031 13.75 10 13.75C7.8969 13.75 5.90207 13.3663 4.36276 12.6667C3.75529 12.3905 3.07158 11.991 2.5 11.4513Z" fill="white"/>
<path d="M2.5 15.2013V16.25C2.5 17.5088 3.59392 18.4441 4.88001 19.0287C6.22253 19.6389 8.03331 20 10 20C11.9667 20 13.7775 19.6389 15.12 19.0287C16.4061 18.4441 17.5 17.5088 17.5 16.25V15.2013C16.9284 15.741 16.2447 16.1405 15.6372 16.4167C14.0979 17.1163 12.1031 17.5 10 17.5C7.8969 17.5 5.90207 17.1163 4.36276 16.4167C3.75529 16.1405 3.07158 15.741 2.5 15.2013Z" fill="white"/>
</svg>
