<svg width="20" height="20" viewBox="0 0 20 20" fill="none" xmlns="http://www.w3.org/2000/svg">
<path d="M15 0H5C3.61929 0 2.5 1.11929 2.5 2.5V17.5C2.5 18.8807 3.61929 20 5 20H15C16.3807 20 17.5 18.8807 17.5 17.5V2.5C17.5 1.11929 16.3807 0 15 0ZM13.5669 8.56694L9.81694 12.3169C9.69973 12.4342 9.54076 12.5 9.375 12.5C9.20924 12.5 9.05027 12.4342 8.93306 12.3169L7.05806 10.4419C6.81398 10.1979 6.81398 9.80214 7.05806 9.55806C7.30214 9.31398 7.69786 9.31398 7.94194 9.55806L9.375 10.9911L12.6831 7.68306C12.9271 7.43898 13.3229 7.43898 13.5669 7.68306C13.811 7.92714 13.811 8.32286 13.5669 8.56694Z" fill="#374151"/>
</svg>
