<svg width="20" height="20" viewBox="0 0 20 20" fill="none" xmlns="http://www.w3.org/2000/svg">
<g clip-path="url(#clip0_153_711)">
<path d="M10.8333 7.49971V9.16638C10.8333 9.62638 10.46 9.99971 10 9.99971C9.54001 9.99971 9.16667 9.62638 9.16667 9.16638V7.49971C9.16667 7.03971 9.54001 6.66638 10 6.66638C10.46 6.66638 10.8333 7.03971 10.8333 7.49971ZM10 10.833C9.54001 10.833 9.16667 11.2064 9.16667 11.6664C9.16667 12.1264 9.54001 12.4997 10 12.4997C10.46 12.4997 10.8333 12.1264 10.8333 11.6664C10.8333 11.2064 10.46 10.833 10 10.833ZM18.7167 14.9014C18.0408 16.1014 16.5125 16.5297 15.3125 15.8555L14.8342 15.5864C14.1483 16.1947 13.3567 16.6722 12.5 16.993V17.4997C12.5 18.878 11.3783 19.9997 10 19.9997C8.62167 19.9997 7.50001 18.878 7.50001 17.4997V17.083C6.58834 16.7797 5.74417 16.3014 5.01001 15.6739L4.68751 15.8555C3.48501 16.5289 1.95834 16.1014 1.28334 14.9014C0.607505 13.6997 1.03584 12.1722 2.23751 11.4964L2.51167 11.3422C2.42917 10.8955 2.38834 10.4405 2.38834 9.98305C2.38834 9.53638 2.42834 9.09138 2.50667 8.65305L2.23751 8.50221C1.03667 7.82638 0.608338 6.29888 1.28334 5.09721C1.61084 4.51555 2.145 4.09555 2.78834 3.91555C3.43084 3.73471 4.10667 3.81555 4.68834 4.14388L4.98751 4.31221C5.72584 3.67471 6.57834 3.18971 7.50001 2.88221V2.49805C7.50001 1.11971 8.62167 -0.00195312 10 -0.00195312C11.3783 -0.00195312 12.5 1.11971 12.5 2.49805V2.97305C13.3658 3.29805 14.1642 3.78138 14.8558 4.39888L15.3125 4.14221C15.8933 3.81388 16.5683 3.73138 17.2117 3.91471C17.8542 4.09471 18.3892 4.51471 18.7167 5.09638C19.3925 6.29805 18.9642 7.82555 17.7625 8.50138L17.26 8.78388C17.3242 9.17971 17.3558 9.57971 17.3558 9.98221C17.3558 10.3947 17.3217 10.8055 17.255 11.2105L17.7617 11.4955C18.9633 12.1714 19.3917 13.6989 18.7158 14.9005L18.7167 14.9014ZM14.5033 11.558L11.0192 5.58555C10.5633 4.80471 9.43584 4.80471 8.98001 5.58555L5.49584 11.558C5.03667 12.3447 5.60417 13.333 6.51584 13.333H13.4833C14.3942 13.333 14.9617 12.3447 14.5033 11.558Z" fill="#374151"/>
</g>
<defs>
<clipPath id="clip0_153_711">
<rect width="20" height="20" fill="white"/>
</clipPath>
</defs>
</svg>
